<?xml version="1.0" encoding="UTF-8" standalone="no"?>
<!-- Created with Inkscape (http://www.inkscape.org/) -->

<svg
   width="200"
   height="200"
   viewBox="0 0 52.916665 52.916666"
   version="1.1"
   id="svg1"
   xml:space="preserve"
   inkscape:version="1.4.2 (ebf0e940d0, 2025-05-08)"
   sodipodi:docname="logo.svg"
   xmlns:inkscape="http://www.inkscape.org/namespaces/inkscape"
   xmlns:sodipodi="http://sodipodi.sourceforge.net/DTD/sodipodi-0.dtd"
   xmlns:xlink="http://www.w3.org/1999/xlink"
   xmlns="http://www.w3.org/2000/svg"
   xmlns:svg="http://www.w3.org/2000/svg"><sodipodi:namedview
     id="namedview1"
     pagecolor="#505050"
     bordercolor="#eeeeee"
     borderopacity="1"
     inkscape:showpageshadow="0"
     inkscape:pageopacity="0"
     inkscape:pagecheckerboard="0"
     inkscape:deskcolor="#505050"
     inkscape:document-units="mm"
     inkscape:zoom="2"
     inkscape:cx="-68.750001"
     inkscape:cy="156.25"
     inkscape:window-width="2510"
     inkscape:window-height="1043"
     inkscape:window-x="0"
     inkscape:window-y="0"
     inkscape:window-maximized="1"
     inkscape:current-layer="layer1" /><defs
     id="defs1"><linearGradient
       id="swatch10"
       inkscape:swatch="solid"><stop
         style="stop-color:#5ba45d;stop-opacity:1;"
         offset="0"
         id="stop10" /></linearGradient><linearGradient
       inkscape:collect="always"
       xlink:href="#swatch10"
       id="linearGradient10"
       x1="79.108574"
       y1="131.54692"
       x2="103.84409"
       y2="131.54692"
       gradientUnits="userSpaceOnUse" /></defs><g
     inkscape:label="Layer 1"
     inkscape:groupmode="layer"
     id="layer1"><g
       id="g1"
       transform="matrix(0.79998548,0.23880555,-0.25719168,0.86157799,-24.297448,-94.890563)"
       inkscape:transform-center-x="9.205721"
       inkscape:transform-center-y="-5.3296592"><path
         style="fill:#278855;fill-opacity:1;stroke:#000000;stroke-width:0.2;stroke-linecap:round;stroke-linejoin:round;stroke-dasharray:none;stroke-opacity:0.124946"
         d="m 102.42738,103.87356 3.68931,-6.756201 c -0.0603,1.397769 0.003,0.664531 1.43656,2.084713 0.45672,0.452588 3.28096,2.263498 3.57124,2.706238 0.41734,0.63654 0.0638,1.32868 0.0453,1.41739 -2.69157,12.86329 -21.051468,27.52609 -26.795984,29.71242 -1.693804,0.64465 6.734326,-17.29812 18.053594,-29.16456 z"
         id="path4"
         sodipodi:nodetypes="ccssssc" /><path
         style="fill:#5ca55f;fill-opacity:1;stroke:#000000;stroke-width:0.2;stroke-linecap:round;stroke-linejoin:round;stroke-dasharray:none;stroke-opacity:0.124946"
         d="m 106.03265,97.02 -3.59433,6.66323 9.07006,5.95779 5.33533,-3.2012 5.06857,2.66766 3.73472,-1.24491 -3.6458,0.26677 -5.15749,-2.93443 -5.15748,2.13413 -0.35569,-4.71287 c -3.33638,-0.33605 -3.75911,-4.788713 -5.29789,-5.59617 z"
         id="path3"
         sodipodi:nodetypes="ccccccccccc" /><path
         style="fill:#f5c73b;fill-opacity:1;stroke:#000000;stroke-width:0.2;stroke-linecap:round;stroke-linejoin:round;stroke-dasharray:none;stroke-opacity:0.124946"
         d="M 106.07427,97.019918 72.686343,128.64728 C 91.944405,127.83809 98.15893,111.6879 106.07427,97.019918 Z"
         id="path5"
         sodipodi:nodetypes="ccc" /><path
         style="fill:#5ba45d;fill-opacity:0.956863;stroke:#000000;stroke-width:0.2;stroke-linecap:round;stroke-linejoin:round;stroke-dasharray:none;stroke-opacity:0.124946"
         d="m 84.067162,132.98583 c 5.312196,-6.85497 11.184476,-12.92583 16.882598,-19.24051 1.77108,-0.54169 2.17208,0.20106 2.64085,0.88029 0.79555,6.10032 -17.389916,17.95236 -19.523448,18.36022 z"
         id="path10"
         sodipodi:nodetypes="cccc" /><path
         style="fill:#f5c73b;fill-opacity:1;stroke:#000000;stroke-width:0.2;stroke-linecap:round;stroke-linejoin:round;stroke-dasharray:none;stroke-opacity:0.124946"
         d="m 111.68623,91.63428 c 0.23347,-7.411911 2.23592,-10.283427 4.20157,-13.249399 -1.78898,3.520701 -3.069,7.704596 -2.9122,13.760701 z"
         id="path8"
         sodipodi:nodetypes="cccc" /><path
         style="fill:#f5c73b;fill-opacity:1;stroke:#000000;stroke-width:0.2;stroke-linecap:round;stroke-linejoin:round;stroke-dasharray:none;stroke-opacity:0.124946"
         d="m 114.15382,92.856959 -1.17822,-0.733608 c 2.82683,-8.552082 5.32515,-10.862518 7.80292,-12.782557 -4.36966,4.871731 -5.70436,9.229064 -6.6247,13.516165 z"
         id="path9"
         sodipodi:nodetypes="cccc" /><path
         style="fill:#5ba45d;fill-opacity:1;stroke:#000000;stroke-width:0.2;stroke-linecap:round;stroke-linejoin:round;stroke-dasharray:none;stroke-opacity:0.124946"
         d="m 117.91078,99.326048 c 0.0297,2.665002 0.93303,6.097782 -6.58024,2.134132 -1.74373,-2.187479 -6.23321,-2.239371 -4.17934,-7.380539 5.09725,-5.565664 9.0766,0.110287 10.75958,5.246407 z"
         id="path1"
         sodipodi:nodetypes="cccc" /><ellipse
         style="fill:#d3493e;fill-opacity:1;stroke:#000000;stroke-width:0.2;stroke-linecap:round;stroke-linejoin:round;stroke-dasharray:none;stroke-opacity:0.124946"
         id="path2"
         cx="112.08637"
         cy="95.947006"
         rx="2.5342813"
         ry="2.4008982" /><path
         style="fill:#5ba45d;fill-opacity:1;stroke:#000000;stroke-width:0.2;stroke-linecap:round;stroke-linejoin:round;stroke-dasharray:none;stroke-opacity:0.124946"
         d="m 108.27498,110.85296 c -0.52693,-0.8348 -4.20355,4.37782 -6.60213,7.13659 l 1.22611,6.91652 -1.44618,4.33854 2.26359,-4.11847 -0.62878,-6.38206 c 2.30857,-2.89053 6.6157,-6.67837 5.18739,-7.89112 z"
         id="path7"
         sodipodi:nodetypes="ccccccc" /><path
         style="fill:url(#linearGradient10);stroke:#000000;stroke-width:0.2;stroke-linecap:round;stroke-linejoin:round;stroke-dasharray:none;stroke-opacity:0.124946"
         d="m 79.225597,149.45972 4.715811,-5.72185 -1.383305,-26.2199 c 6.68199,0.89726 12.998639,1.42919 18.926117,1.57194 1.06299,-0.11012 4.17307,-5.29208 0.44014,-5.40746 l -21.00107,1.82344 1.949202,27.03731 z"
         id="path6"
         sodipodi:nodetypes="cccccccc" /></g></g></svg>
